<?xml version="1.0" encoding="UTF-8" standalone="no"?>
<!-- Created with Inkscape (http://www.inkscape.org/) -->

<svg
   xmlns:dc="http://purl.org/dc/elements/1.1/"
   xmlns:cc="http://creativecommons.org/ns#"
   xmlns:rdf="http://www.w3.org/1999/02/22-rdf-syntax-ns#"
   xmlns:svg="http://www.w3.org/2000/svg"
   xmlns="http://www.w3.org/2000/svg"
   xmlns:sodipodi="http://sodipodi.sourceforge.net/DTD/sodipodi-0.dtd"
   xmlns:inkscape="http://www.inkscape.org/namespaces/inkscape"
   width="210mm"
   height="297mm"
   viewBox="0 0 210 297"
   version="1.1"
   id="svg827"
   inkscape:version="0.92.3 (2405546, 2018-03-11)"
   sodipodi:docname="titlebar.svg">
  <defs
     id="defs821" />
  <sodipodi:namedview
     id="base"
     pagecolor="#ffffff"
     bordercolor="#666666"
     borderopacity="1.0"
     inkscape:pageopacity="0.0"
     inkscape:pageshadow="2"
     inkscape:zoom="0.35"
     inkscape:cx="-305.71429"
     inkscape:cy="560"
     inkscape:document-units="mm"
     inkscape:current-layer="layer1"
     showgrid="false"
     inkscape:window-width="1920"
     inkscape:window-height="1020"
     inkscape:window-x="1920"
     inkscape:window-y="28"
     inkscape:window-maximized="1" />
  <metadata
     id="metadata824">
    <rdf:RDF>
      <cc:Work
         rdf:about="">
        <dc:format>image/svg+xml</dc:format>
        <dc:type
           rdf:resource="http://purl.org/dc/dcmitype/StillImage" />
        <dc:title></dc:title>
      </cc:Work>
    </rdf:RDF>
  </metadata>
  <g
     inkscape:label="レイヤー 1"
     inkscape:groupmode="layer"
     id="layer1">
    <path
       inkscape:connector-curvature="0"
       style="fill:#000000;stroke-width:0.06308829"
       d="m 86.10478,141.32729 v 12.01832 h 1.52595 v -4.48715 l 0.4357,-0.4357 4.85386,4.92285 h 2.13514 l -5.91256,-6.00916 5.91256,-6.00916 h -2.13514 l -5.28365,5.36054 -0.01,-5.35659 z m 10.49237,0 0.004,3.93119 c 0.003,4.30003 -0.001,3.97448 0.0552,4.32352 0.10843,0.672 0.38031,1.33436 0.77875,1.89068 0.333,0.46496 0.79515,0.89602 1.27556,1.19277 0.65953,0.40738 1.40488,0.63827 2.16669,0.67031 1.10696,0.0466 2.175,-0.3093 3.02824,-1.00745 0.83549,-0.68361 1.39792,-1.6495 1.57721,-2.70885 0.0618,-0.36495 0.058,-0.007 0.0611,-4.35112 l 0.002,-3.94105 h -1.51609 l -0.004,3.87994 c -0.002,2.92044 -0.005,3.89973 -0.0138,3.96076 -0.0374,0.2685 -0.0745,0.43336 -0.13997,0.63088 -0.19403,0.58544 -0.5853,1.11745 -1.08631,1.47272 -0.69326,0.4916 -1.57224,0.66338 -2.39538,0.46724 -0.849,-0.20229 -1.56584,-0.77008 -1.95574,-1.5496 -0.15972,-0.31934 -0.2459,-0.60935 -0.2977,-0.99758 -0.0137,-0.10302 -0.0168,-0.50272 -0.0197,-3.99034 l -0.002,-3.87402 z m 71.88912,0 -43.4777,0.004 v 1.522 h 43.4777 z m -53.9681,0.004 v 12.00255 l 8.95262,0.0118 v -1.52595 h -7.43062 v -4.48321 h 5.89876 l 1.52792,-1.52596 h -7.42668 v -2.95726 h 7.42668 v -1.522 z m -47.95302,0.004 c -1.23397,-0.005 -2.46487,0.36909 -3.51323,1.11785 -0.51765,0.36971 -1.01748,0.8691 -1.39189,1.39188 -0.53135,0.74193 -0.89427,1.62023 -1.03898,2.51368 -0.061,0.37681 -0.0749,0.56469 -0.0749,0.97786 0,0.4159 0.0139,0.6099 0.0749,0.97787 0.46642,2.81424 2.84297,4.91017 5.69372,5.02144 1.32419,0.0517 2.64515,-0.34509 3.72615,-1.11982 0.52573,-0.37677 1.01744,-0.86847 1.38991,-1.39188 0.69072,-0.97064 1.07306,-2.10634 1.11391,-3.30425 l 0.006,-0.18336 h -6.00127 v 1.52596 l 4.20128,0.0177 c -0.004,0.009 -0.0187,0.049 -0.0335,0.0887 -0.0148,0.0397 -0.0552,0.13652 -0.0907,0.2149 -0.61831,1.36492 -1.86697,2.32282 -3.34959,2.57282 -0.25972,0.0438 -0.42311,0.0573 -0.73734,0.0572 -0.31299,-1.3e-4 -0.45821,-0.0116 -0.73341,-0.0572 -1.89219,-0.31315 -3.38207,-1.81263 -3.68671,-3.71038 -0.0771,-0.48049 -0.0741,-0.99855 0.008,-1.46878 0.32878,-1.8857 1.79692,-3.34355 3.68475,-3.66109 0.25305,-0.0426 0.43351,-0.0572 0.7334,-0.0572 0.29989,0 0.4775,0.0143 0.7334,0.0572 1.37748,0.23031 2.5573,1.07842 3.22145,2.31652 0.0762,0.1421 0.19209,0.39617 0.22869,0.50274 l 0.0217,0.0651 h 0.80044 c 0.75712,0 0.7994,3e-5 0.79451,-0.0158 -0.003,-0.009 -0.0301,-0.10076 -0.0611,-0.20306 -0.1858,-0.61272 -0.48646,-1.21871 -0.86353,-1.74479 -0.45231,-0.63107 -1.05001,-1.19017 -1.70929,-1.59889 -0.96689,-0.59944 -2.05774,-0.89878 -3.14653,-0.90296 z m 12.00058,0.004 -6.00719,12.00649 1.70338,-0.004 1.47863,-2.95333 h 5.64641 l 1.47863,2.95726 h 1.70338 z m 53.87149,3.04992 -0.004,5.8199 -7.42273,-5.81004 -0.004,8.94671 h 1.52595 l 0.006,-5.8199 7.42273,5.81004 0.002,-8.94671 z m 13.54623,0 v 8.95657 h 1.52596 v -8.95657 z m 10.49436,0 -0.006,5.8199 -7.42273,-5.81004 -0.004,8.94671 h 1.52594 l 0.006,-5.8199 7.42273,5.81004 0.004,-8.94671 z m 3.06174,0 v 8.95657 h 8.94672 v -1.52595 h -7.43063 v -2.95726 h 5.91059 l 1.51018,-1.51806 -7.42076,-0.008 v -1.42146 h 7.43062 v -1.52595 z m -19.56525,0.006 c -0.29373,0 -0.47119,0.0144 -0.72946,0.0572 -1.88258,0.31172 -3.36489,1.78472 -3.68278,3.66306 -0.0464,0.2738 -0.0566,0.40516 -0.0572,0.73734 -9.2e-4,0.32715 0.008,0.43402 0.0493,0.70186 0.32626,2.10461 2.1046,3.69481 4.22889,3.78135 1.31443,0.0536 2.56861,-0.45959 3.46393,-1.41948 0.73356,-0.78644 1.15567,-1.80553 1.19671,-2.88432 l 0.008,-0.15969 h -4.4773 v 1.51609 l 2.51762,0.01 c 0,0.0128 -0.0746,0.12849 -0.13998,0.21687 -0.81818,1.10635 -2.28238,1.50559 -3.54083,0.96604 -0.92376,-0.39604 -1.58868,-1.24393 -1.7507,-2.23175 -0.051,-0.31059 -0.051,-0.65391 0,-0.96406 0.18125,-1.10307 0.9718,-2.00784 2.04445,-2.34019 0.843,-0.26118 1.76633,-0.12838 2.49988,0.36079 0.34348,0.22905 0.67154,0.56317 0.85958,0.87535 l 0.0335,0.0552 1.67382,-0.01 c 0,-0.0407 -0.15545,-0.38829 -0.2563,-0.57568 -0.65961,-1.22578 -1.8395,-2.06977 -3.21355,-2.29878 -0.25527,-0.0426 -0.4337,-0.0572 -0.72749,-0.0572 z m -61.41055,0.35684 c 0.006,0 2.05629,4.09813 2.05629,4.1106 h -4.11257 c 0,-0.0125 2.05005,-4.1106 2.05628,-4.1106 z"
       id="path3065"
       inkscape:export-xdpi="9.1599998"
       inkscape:export-ydpi="9.1599998" />
    <path
       inkscape:connector-curvature="0"
       d="m 174.80351,152.25766 -2.1821,-5.27255 2.18214,-5.27251 5.27256,-2.1822 5.27105,2.18206 -1.05299,1.05299 -4.21826,-1.74726 -4.21907,1.7476 -1.7476,4.21908 1.74774,4.21941 4.21908,1.7476 4.21927,-1.74755 1.17666,-2.84065 -1.37862,-1.37862 h 3.43821 l -2.18297,5.2725 -5.27356,2.18428 z m 2.15904,-0.79807 h 2.30761 l 0.11647,-0.28261 -9e-5,-2.81586 h -4.50207 l -0.569,-1.37611 h 5.53429 l 0.17808,-0.20418 h -1.73773 l -1.37611,-1.37606 h 6.32414 l -1.55612,1.57879 2.15093,10e-4 1.37761,1.37755 -4.44496,-0.001 v 2.81595 l 0.4549,1.10379 -1.14563,0.46577 -3.1123,-1.28704 z m -1.9914,-6.05868 0.65324,-1.57792 6.75285,-0.003 -0.0768,-0.38835 -0.32485,-0.13513 c 0,0 0.36371,-0.70682 0.54556,-1.06028 l 1.62803,0.67415 -0.91105,0.91106 1.2898,0.001 0.65298,1.57762 -1.53442,0.001 -0.20413,-0.20419 h -6.7326 l -0.20413,0.20419 -1.53448,-9.3e-4 z m 1.03183,-2.49038 1.62692,-0.67368 0.54552,1.05957 -1.26202,0.52212 z m 2.98848,-1.23702 1.08474,-0.44997 1.08489,0.44948 -0.24245,1.18527 -0.84268,-0.34868 -0.84311,0.34921 z"
       id="path3914-7"
       style="display:inline;fill:#87caf3;fill-opacity:1;stroke-width:0.02765395"
       inkscape:export-xdpi="9.1599998"
       inkscape:export-ydpi="9.1599998" />
  </g>
</svg>
